<svg width="30" height="31" viewBox="0 0 30 31" fill="none" xmlns="http://www.w3.org/2000/svg">
<path d="M24.414 0.815918H5.58586C2.50582 0.815918 0 3.30175 0 6.35721V25.0346C0 28.0901 2.50582 30.5759 5.58586 30.5759H24.414C27.4941 30.5759 30 28.0901 30 25.0346V6.35721C30 3.30175 27.4941 0.815918 24.414 0.815918ZM23.4727 23.5719H6.52734C6.04189 23.5719 5.64844 23.1815 5.64844 22.7C5.64844 22.2185 6.04189 21.8281 6.52734 21.8281H23.4727C23.958 21.8281 24.3516 22.2185 24.3516 22.7C24.3516 23.1815 23.958 23.5719 23.4727 23.5719ZM23.4727 16.5678H6.52734C6.04189 16.5678 5.64844 16.1774 5.64844 15.6959C5.64844 15.2144 6.04189 14.824 6.52734 14.824H23.4727C23.958 14.824 24.3516 15.2144 24.3516 15.6959C24.3516 16.1774 23.958 16.5678 23.4727 16.5678ZM23.4727 9.56373H6.52734C6.04189 9.56373 5.64844 9.17336 5.64844 8.69186C5.64844 8.21035 6.04189 7.81998 6.52734 7.81998H23.4727C23.958 7.81998 24.3516 8.21035 24.3516 8.69186C24.3516 9.17336 23.958 9.56373 23.4727 9.56373Z" fill="white"/>
</svg>
